<?xml version="1.0" standalone="no"?>
<!DOCTYPE svg PUBLIC "-//W3C//DTD SVG 20010904//EN"
 "http://www.w3.org/TR/2001/REC-SVG-20010904/DTD/svg10.dtd">
<svg version="1.0" xmlns="http://www.w3.org/2000/svg"
 width="801.000000pt" height="1280.000000pt" viewBox="0 0 801.000000 1280.000000"
 preserveAspectRatio="xMidYMid meet">
<metadata>
Created by potrace 1.15, written by Peter Selinger 2001-2017
</metadata>
<g transform="translate(0.000000,1280.000000) scale(0.100000,-0.100000)"
fill="#000000" stroke="none">
<path d="M2630 12781 c-163 -36 -243 -90 -280 -188 -31 -82 -42 -101 -110
-183 -79 -94 -91 -123 -100 -242 -6 -92 -8 -99 -46 -150 -60 -79 -58 -75 -60
-183 0 -63 -7 -121 -18 -157 -10 -33 -14 -63 -9 -72 4 -7 28 -29 53 -47 25
-19 55 -54 68 -79 21 -40 23 -54 18 -126 -3 -44 -15 -116 -26 -160 -27 -107
-47 -125 -171 -148 -187 -36 -775 -219 -889 -276 -63 -32 -234 -142 -267 -172
-12 -11 -25 -35 -29 -52 -9 -43 -34 -90 -109 -205 -108 -164 -134 -234 -255
-688 -82 -305 -168 -563 -277 -828 -50 -121 -98 -244 -107 -274 -29 -99 -16
-192 45 -312 36 -72 198 -276 240 -302 33 -21 127 -29 179 -15 62 17 71 -31
59 -322 -4 -118 -13 -413 -19 -655 -6 -242 -20 -800 -32 -1240 -17 -609 -22
-1028 -23 -1755 0 -952 3 -1097 41 -1700 42 -689 145 -1671 181 -1733 40 -67
86 -61 91 11 2 23 -11 137 -27 254 -112 781 -168 1430 -191 2193 -16 551 -12
1002 20 2030 5 176 14 523 20 770 40 1737 55 2076 95 2170 7 18 27 43 43 55
40 30 49 57 57 170 3 52 18 151 32 220 15 73 26 160 27 211 1 78 -2 89 -27
128 -24 36 -26 46 -19 75 15 52 80 148 99 144 17 -3 118 -271 152 -404 41
-159 51 -351 31 -569 -14 -142 -31 -242 -86 -505 -55 -257 -94 -472 -94 -515
0 -16 -11 -50 -24 -75 -34 -64 -46 -132 -57 -325 -5 -93 -17 -217 -26 -275
-22 -149 -13 -277 32 -460 35 -142 45 -237 36 -340 -3 -25 1 -115 9 -200 9
-110 11 -241 7 -451 -7 -294 -7 -296 16 -337 29 -54 82 -94 195 -148 77 -37
96 -50 107 -77 7 -18 26 -113 41 -212 24 -161 27 -207 28 -440 0 -260 0 -260
-27 -325 -40 -98 -57 -184 -57 -298 0 -122 20 -225 65 -342 18 -47 113 -240
211 -430 273 -530 246 -464 254 -605 8 -124 14 -146 65 -220 32 -48 52 -149
66 -325 11 -149 20 -207 63 -393 37 -160 51 -196 104 -262 86 -106 86 -109 18
-215 -34 -53 -41 -73 -41 -113 0 -36 5 -52 19 -62 44 -33 219 -31 575 4 178
18 186 19 208 45 31 36 29 67 -9 156 -31 73 -32 81 -42 290 -5 118 -9 260 -9
315 2 177 51 411 158 750 139 439 178 583 212 797 23 145 23 494 -1 638 -43
265 -50 344 -50 615 -1 163 4 313 12 380 40 333 116 612 171 630 12 3 47 1 79
-6 85 -19 230 -16 286 5 70 27 75 54 43 253 -44 263 -50 349 -44 608 8 317 24
393 103 491 44 53 60 95 85 212 68 331 90 536 71 682 -5 41 -6 86 -3 99 7 23
7 23 26 5 26 -27 119 -224 154 -330 40 -120 47 -197 27 -312 -20 -115 -20
-153 -1 -199 15 -35 14 -40 -6 -87 -17 -40 -20 -60 -14 -110 6 -60 5 -63 -36
-126 -105 -162 -139 -270 -139 -445 0 -66 -5 -157 -12 -203 -10 -77 -10 -85 9
-110 11 -15 45 -39 76 -54 75 -36 81 -51 66 -143 -15 -85 -6 -128 26 -132 15
-2 33 17 72 75 28 42 81 111 117 154 36 42 66 83 66 92 0 22 15 20 48 -4 36
-27 54 -19 98 38 37 49 64 125 64 181 0 20 11 59 24 87 49 105 50 186 5 376
-30 129 -31 138 -24 282 4 100 2 183 -6 253 -16 128 -6 204 51 413 22 80 49
208 60 284 24 167 41 241 73 327 27 73 46 148 82 337 30 157 46 202 73 202 28
0 48 -36 57 -100 4 -30 20 -84 37 -120 34 -76 32 -89 -32 -279 -22 -65 -40
-123 -40 -130 0 -8 -16 -31 -35 -52 -119 -132 -200 -447 -227 -887 -14 -223
-1 -436 32 -562 11 -41 24 -140 30 -219 18 -262 62 -430 244 -929 165 -453
224 -647 276 -902 49 -243 52 -295 34 -555 -20 -281 -15 -706 11 -855 33 -197
79 -338 221 -672 156 -368 181 -464 190 -723 9 -238 -24 -358 -130 -483 -51
-60 -61 -83 -47 -111 20 -36 73 -44 236 -38 187 8 592 73 668 108 40 18 42 47
13 161 -47 186 -83 521 -72 682 18 278 90 470 321 856 174 292 250 475 280
676 39 263 68 401 119 569 67 223 90 331 111 510 41 364 66 541 145 1015 102
610 126 862 114 1161 -4 92 -4 178 0 192 8 34 39 43 83 22 46 -22 107 -15 188
23 74 35 121 81 151 147 13 27 39 130 59 228 20 98 49 224 65 280 55 195 64
267 64 472 1 214 -12 311 -75 605 -22 102 -76 361 -120 575 -94 460 -114 549
-176 755 -93 312 -140 407 -238 481 -60 45 -96 61 -199 89 -50 13 -124 47
-214 97 -75 42 -232 123 -348 180 -115 56 -219 112 -229 123 -15 17 -19 42
-23 154 -5 152 0 177 61 281 37 64 41 77 49 175 5 58 13 129 18 159 17 92 12
174 -12 238 -20 52 -23 76 -23 223 0 198 -10 230 -111 368 -104 141 -114 157
-132 208 -15 42 -24 52 -67 74 -43 22 -63 25 -150 25 -81 0 -115 -5 -180 -27
-54 -18 -114 -28 -185 -33 -58 -4 -132 -14 -164 -22 -115 -28 -246 -110 -246
-153 0 -9 8 -32 17 -51 16 -31 15 -37 -1 -99 -36 -130 -60 -266 -60 -340 -1
-61 4 -84 24 -125 29 -58 45 -66 61 -31 7 14 15 26 19 26 14 0 22 -76 21 -203
-1 -157 16 -248 97 -518 33 -107 65 -225 72 -263 14 -75 9 -201 -10 -254 -12
-31 -13 -32 -68 -30 -52 2 -68 -3 -182 -61 -138 -70 -387 -210 -494 -279 -38
-24 -98 -58 -133 -74 -78 -38 -105 -68 -133 -152 -11 -35 -36 -86 -55 -112
-19 -27 -35 -53 -35 -57 0 -21 -53 -117 -64 -117 -13 0 -15 12 -52 345 -39
364 -100 602 -202 800 -37 70 -66 109 -132 175 -79 79 -102 95 -320 217 -129
72 -282 155 -340 183 -58 29 -113 59 -122 68 -26 22 -22 51 13 102 47 69 76
131 131 274 67 175 67 174 82 307 11 96 20 132 56 215 23 54 45 118 48 141 7
65 -14 164 -75 358 -56 174 -60 181 -113 239 -162 176 -416 251 -660 197z
m1076 -4248 c4 -20 7 -122 8 -227 1 -184 0 -191 -19 -191 -14 0 -28 17 -49 58
-25 48 -29 69 -29 130 0 62 32 231 49 258 13 21 33 7 40 -28z m3579 -708 c30
-88 77 -216 105 -285 71 -171 86 -221 105 -345 27 -182 29 -284 8 -325 -18
-35 -138 -123 -157 -117 -6 2 -15 21 -20 43 -5 21 -39 147 -76 279 -94 331
-107 441 -81 660 7 55 13 129 15 165 1 36 5 71 10 78 21 34 40 2 91 -153z
m-3496 -182 c11 -41 18 -419 8 -429 -7 -8 -84 107 -110 164 -40 90 -20 201 48
275 34 36 42 34 54 -10z m-1525 -3065 c8 -42 -10 -207 -37 -345 -18 -88 -25
-109 -41 -111 -18 -4 -19 3 -13 154 4 114 11 181 26 238 29 111 51 132 65 64z
m3849 -344 c54 -214 62 -290 48 -450 -14 -160 -20 -196 -34 -191 -26 8 -59
170 -77 372 -11 136 -14 418 -3 429 15 15 32 -26 66 -160z m-3882 -926 c30
-61 31 -66 27 -161 -7 -144 -43 -169 -85 -59 -31 81 -19 282 18 282 4 0 22
-28 40 -62z m3945 -129 c48 -199 48 -214 1 -251 -21 -17 -45 -44 -53 -60 -12
-24 -18 -27 -30 -17 -18 15 -18 106 1 312 21 230 30 231 81 16z m-3997 -621
c6 -18 18 -105 26 -193 9 -88 31 -256 50 -373 19 -118 35 -224 35 -238 0 -37
-42 -32 -89 11 -82 74 -114 218 -92 417 8 68 17 182 20 253 3 72 10 136 14
143 13 20 25 14 36 -20z m169 -1090 c18 -22 24 -178 12 -288 -13 -117 -33
-205 -84 -362 -47 -144 -48 -146 -75 -119 -28 28 -27 61 10 167 16 49 44 141
61 204 27 103 30 129 29 254 0 76 2 143 5 147 8 13 30 11 42 -3z"/>
</g>
</svg>
